<?xml version="1.0" encoding="UTF-8" standalone="no"?>
<svg
   xmlns:dc="http://purl.org/dc/elements/1.1/"
   xmlns:cc="http://creativecommons.org/ns#"
   xmlns:rdf="http://www.w3.org/1999/02/22-rdf-syntax-ns#"
   xmlns:svg="http://www.w3.org/2000/svg"
   xmlns="http://www.w3.org/2000/svg"
   xmlns:sodipodi="http://sodipodi.sourceforge.net/DTD/sodipodi-0.dtd"
   xmlns:inkscape="http://www.inkscape.org/namespaces/inkscape"
   version="1.0"
   width="1057px"
   height="1057px"
   viewBox="0 0 10570 10570"
   preserveAspectRatio="xMidYMid meet"
   id="svg4115"
   sodipodi:docname="cgearsep.svg"
   inkscape:version="0.92.3 (2405546, 2018-03-11)">
  <metadata
     id="metadata4121">
    <rdf:RDF>
      <cc:Work
         rdf:about="">
        <dc:format>image/svg+xml</dc:format>
        <dc:type
           rdf:resource="http://purl.org/dc/dcmitype/StillImage" />
        <dc:title></dc:title>
      </cc:Work>
    </rdf:RDF>
  </metadata>
  <defs
     id="defs4119" />
  <sodipodi:namedview
     pagecolor="#ffffff"
     bordercolor="#666666"
     borderopacity="1"
     objecttolerance="10"
     gridtolerance="10"
     guidetolerance="10"
     inkscape:pageopacity="0"
     inkscape:pageshadow="2"
     inkscape:window-width="1920"
     inkscape:window-height="1027"
     id="namedview4117"
     showgrid="false"
     inkscape:zoom="0.63151258"
     inkscape:cx="273.81046"
     inkscape:cy="476.05935"
     inkscape:window-x="-8"
     inkscape:window-y="-8"
     inkscape:window-maximized="1"
     inkscape:current-layer="svg4115" />
  <path
     d="m 4935,10558 c -71,-4 -157,-12 -189,-16 l -60,-7 -131,-525 -131,-524 -165,-42 c -90,-23 -195,-51 -233,-63 -37,-11 -74,-21 -81,-21 -7,0 -181,173 -385,385 -205,212 -378,385 -384,385 -27,0 -462,-225 -614,-317 -199,-120 -423,-275 -418,-288 2,-5 69,-240 149,-521 l 146,-511 -179,-179 -179,-180 -518,148 c -285,81 -520,148 -523,148 -10,0 -270,-398 -340,-520 -40,-69 -115,-212 -167,-319 l -95,-194 143,-142 c 79,-77 255,-249 391,-380 l 248,-240 -21,-65 c -11,-36 -41,-143 -65,-239 -24,-96 -46,-176 -48,-179 -3,-2 -238,-62 -523,-134 C 279,5947 43,5887 41,5884 26,5870 8,5538 8,5285 c 0,-251 19,-586 33,-598 2,-2 238,-62 523,-133 341,-85 522,-135 527,-144 4,-8 21,-74 38,-146 17,-72 44,-175 61,-230 l 31,-98 -28,-27 c -16,-14 -183,-176 -373,-359 -190,-183 -353,-340 -363,-350 -18,-17 -17,-22 42,-148 164,-355 508,-912 557,-904 11,2 245,68 521,147 l 503,144 180,-180 180,-180 -149,-520 -149,-520 107,-76 c 123,-87 320,-211 471,-295 128,-73 425,-218 450,-221 12,-1 87,69 226,213 114,118 283,292 375,387 l 167,172 99,-30 c 54,-17 160,-45 237,-64 76,-19 142,-37 146,-42 4,-4 65,-240 135,-523 71,-283 132,-518 138,-521 20,-14 368,-33 597,-33 232,0 566,19 589,34 6,3 70,240 142,526 72,285 132,520 133,521 1,1 83,23 182,48 99,24 207,54 239,65 l 60,21 240,-248 c 131,-136 303,-313 381,-392 l 142,-145 223,111 c 123,62 294,154 380,206 183,110 429,278 429,292 -1,6 -67,241 -148,523 l -147,513 179,179 180,179 520,-149 c 477,-136 521,-147 533,-132 42,53 270,404 324,497 75,131 245,469 254,505 6,24 -29,60 -379,399 -212,205 -386,376 -386,380 0,5 20,80 44,167 25,87 53,195 63,238 l 18,80 525,131 525,131 7,55 c 36,287 36,715 2,1081 l -6,66 -528,132 -527,132 -27,117 c -14,65 -43,174 -64,242 l -38,125 388,374 c 213,206 388,380 388,387 0,20 -142,310 -224,456 -96,171 -174,296 -284,455 -72,103 -89,122 -106,118 -12,-3 -246,-70 -521,-149 l -500,-143 -177,178 c -98,98 -178,183 -178,188 0,6 63,230 139,498 77,268 142,499 146,513 6,24 -3,32 -132,121 -76,53 -214,142 -308,197 -184,110 -566,304 -589,299 -8,-2 -181,-176 -386,-388 -205,-212 -377,-383 -384,-382 -96,30 -339,95 -397,107 l -77,17 -132,527 -132,528 -71,7 c -302,27 -621,32 -882,14 z"
     id="path4102"
     fill="#8a2529"
     inkscape:connector-curvature="0" />
  <path
     d="m 4935,10558 c -71,-4 -157,-12 -189,-16 l -60,-7 -131,-525 -131,-524 -165,-42 c -90,-23 -195,-51 -233,-63 -37,-11 -74,-21 -81,-21 -7,0 -181,173 -385,385 -205,212 -378,385 -384,385 -27,0 -462,-225 -614,-317 -199,-120 -423,-275 -418,-288 2,-5 69,-240 149,-521 l 146,-511 -179,-179 -179,-180 -518,148 c -285,81 -520,148 -523,148 -10,0 -270,-398 -340,-520 -40,-69 -115,-212 -167,-319 l -95,-194 143,-142 c 79,-77 255,-249 391,-380 l 248,-240 -21,-65 c -11,-36 -41,-143 -65,-239 -24,-96 -46,-176 -48,-179 -3,-2 -238,-62 -523,-134 C 279,5947 43,5887 41,5884 26,5870 8,5538 8,5285 c 0,-251 19,-586 33,-598 2,-2 238,-62 523,-133 341,-85 522,-135 527,-144 4,-8 21,-74 38,-146 17,-72 44,-175 61,-230 l 31,-98 -28,-27 c -16,-14 -183,-176 -373,-359 -190,-183 -353,-340 -363,-350 -18,-17 -17,-22 42,-148 164,-355 508,-912 557,-904 11,2 245,68 521,147 l 503,144 180,-180 180,-180 -149,-520 -149,-520 107,-76 c 123,-87 320,-211 471,-295 128,-73 425,-218 450,-221 12,-1 87,69 226,213 114,118 283,292 375,387 l 167,172 99,-30 c 54,-17 160,-45 237,-64 76,-19 142,-37 146,-42 4,-4 65,-240 135,-523 71,-283 132,-518 138,-521 20,-14 368,-33 597,-33 232,0 566,19 589,34 6,3 70,240 142,526 72,285 132,520 133,521 1,1 83,23 182,48 99,24 207,54 239,65 l 60,21 240,-248 c 131,-136 303,-313 381,-392 l 142,-145 223,111 c 123,62 294,154 380,206 183,110 429,278 429,292 -1,6 -67,241 -148,523 l -147,513 179,179 180,179 520,-149 c 477,-136 521,-147 533,-132 42,53 270,404 324,497 75,131 245,469 254,505 6,24 -29,60 -379,399 -212,205 -386,376 -386,380 0,5 20,80 44,167 25,87 53,195 63,238 l 18,80 525,131 525,131 7,55 c 36,287 36,715 2,1081 l -6,66 -528,132 -527,132 -27,117 c -14,65 -43,174 -64,242 l -38,125 388,374 c 213,206 388,380 388,387 0,20 -142,310 -224,456 -96,171 -174,296 -284,455 -72,103 -89,122 -106,118 -12,-3 -246,-70 -521,-149 l -500,-143 -177,178 c -98,98 -178,183 -178,188 0,6 63,230 139,498 77,268 142,499 146,513 6,24 -3,32 -132,121 -76,53 -214,142 -308,197 -184,110 -566,304 -589,299 -8,-2 -181,-176 -386,-388 -205,-212 -377,-383 -384,-382 -96,30 -339,95 -397,107 l -77,17 -132,527 -132,528 -71,7 c -302,27 -621,32 -882,14 z M 6651,8432 c 191,-170 582,-519 884,-788 l 190,-170 3,-742 2,-742 h -955 -955 v 365 365 l -62,84 -63,85 -320,-2 -320,-2 -62,-83 -63,-83 V 5377 4034 l 65,-82 65,-82 h 318 l 317,1 63,80 62,81 v 339 339 h 955 955 v -683 -684 l -522,-499 c -288,-275 -550,-525 -584,-557 l -61,-57 H 5321 4078 l -127,113 c -70,61 -187,166 -261,232 -73,66 -166,149 -207,185 -40,36 -196,175 -347,310 l -275,245 v 2065 2065 l 107,100 c 59,55 334,313 611,573 l 504,472 h 1196 l 1196,-1 z"
     id="path4105"
     fill="#adafb2"
     inkscape:connector-curvature="0" />
  <path
     d="m 6707,6852 c -428,-428 -587,-593 -587,-610 v -22 h 683 684 l 6,218 c 4,119 7,359 6,532 v 315 l -94,78 c -52,42 -98,77 -102,77 -4,0 -272,-264 -596,-588 z"
     id="path4107"
     fill="#adafb2"
     inkscape:connector-curvature="0" />
  <path
     d="m 3911,4126 -733,-734 507,-451 507,-451 h 1142 1141 l 503,512 502,511 v 475 475 l -247,-6 c -137,-4 -447,-7 -690,-7 h -443 v -284 -284 l -112,-131 -112,-131 h -475 l -476,1 -135,152 -135,151 -5,468 -5,468 z"
     id="path4109"
     fill="#adafb2"
     inkscape:connector-curvature="0" />
  <path
     d="m 5108,10240 c -81,-3 -151,-9 -156,-15 -5,-5 -65,-234 -133,-508 -68,-274 -127,-503 -130,-509 -3,-5 -62,-20 -130,-33 -176,-32 -349,-77 -538,-140 -90,-30 -167,-55 -171,-55 -5,0 -173,171 -375,380 l -367,379 -78,-39 c -205,-103 -514,-294 -507,-313 2,-7 69,-237 147,-512 l 143,-499 -59,-51 c -145,-124 -297,-271 -394,-380 -58,-65 -118,-133 -135,-151 l -30,-34 -505,145 c -278,80 -508,145 -511,145 -16,0 -206,-314 -304,-503 l -40,-77 135,-133 c 74,-73 246,-241 382,-372 l 247,-240 -50,-145 c -64,-186 -104,-335 -144,-535 l -31,-160 -516,-130 -516,-129 -7,-115 c -9,-144 -1,-549 11,-560 5,-5 239,-65 520,-135 l 511,-128 12,-76 c 22,-145 83,-387 144,-572 34,-102 62,-188 62,-191 0,-4 -169,-170 -375,-369 -206,-200 -376,-366 -378,-370 -7,-18 123,-258 251,-463 59,-95 84,-126 96,-123 147,44 1003,286 1008,285 5,0 42,-41 83,-90 79,-94 334,-350 459,-460 l 74,-64 -143,-500 c -79,-275 -143,-506 -144,-513 -2,-26 555,-351 583,-340 5,1 100,97 212,213 111,116 276,285 366,376 l 162,167 143,-50 c 160,-56 432,-127 583,-153 55,-10 104,-21 108,-25 5,-4 66,-237 136,-516 l 127,-509 55,-7 c 71,-8 476,-10 561,-2 l 66,7 129,515 129,516 123,22 c 182,34 355,79 548,143 l 172,58 366,-378 c 202,-209 372,-379 378,-379 36,0 563,309 573,335 4,9 -250,924 -281,1011 -2,7 35,44 81,84 138,117 304,281 420,415 59,69 111,125 114,125 3,0 232,-65 510,-145 l 505,-144 21,25 c 35,42 188,300 258,435 l 66,126 -380,368 c -209,202 -380,371 -380,376 0,4 16,52 35,106 69,192 139,462 179,694 l 6,37 515,128 514,129 7,30 c 9,40 9,581 0,621 l -7,32 -512,127 c -282,71 -513,129 -515,130 -1,1 -11,52 -23,113 -32,177 -85,383 -145,560 -30,90 -54,167 -52,171 2,4 154,152 338,330 184,178 355,343 379,366 l 43,42 -77,144 c -91,168 -256,439 -267,439 -5,0 -229,-63 -499,-140 -269,-77 -498,-141 -507,-143 -11,-1 -45,30 -91,83 -112,129 -282,300 -416,418 -66,59 -120,111 -119,117 1,5 65,233 143,505 77,272 141,500 141,506 0,15 -282,186 -445,270 l -140,72 -185,-191 c -101,-106 -267,-277 -368,-381 l -183,-189 -152,51 c -180,61 -372,111 -557,147 -74,14 -135,27 -136,28 0,1 -58,232 -129,514 l -127,512 -42,5 c -67,8 -320,11 -478,6 z m 1994,-2207 627,-558 v -742 l 1,-743 h -955 -955 v 361 369 l -125,169 -640,-4 -125,-166 V 5374 4035 c 43.7338,-54.6853 86.8646,-109.8433 130,-165 l 635,1 125,161 v 341 337 h 955 955 V 4026 3342 L 7143,2781 6563,2230 H 4078 l -605,538 -613,547 v 2065 2065 l 611,573 611,572 h 1197 1196 z"
     id="path4112"
     inkscape:connector-curvature="0"
     sodipodi:nodetypes="ccsccsscccccccccccsccccccccccccccccsccccccccccccccccccccccccccccsccccsccccccsccccccccccccsscccsccccccscccccccccccccccccccccccccccccccccccccccccccccc"
     fill="#ffffff" />
</svg>
